<svg xmlns="http://www.w3.org/2000/svg" width="1440" height="1024"><path d="M123,-171L387,-186L525,-195Z" fill="#d96f56" stroke="#d96f56" stroke-width="1.51"/><path d="M387,1198L-170,1204L1020,1243Z" fill="#b49092" stroke="#b49092" stroke-width="1.51"/><path d="M717,1186L387,1198L1020,1243Z" fill="#b0adb6" stroke="#b0adb6" stroke-width="1.51"/><path d="M525,-195L735,-175L1057,-189Z" fill="#db957c" stroke="#db957c" stroke-width="1.51"/><path d="M525,-195L1057,-189L1581,-190Z" fill="#c08b72" stroke="#c08b72" stroke-width="1.51"/><path d="M1057,-189L1310,-123L1581,-190Z" fill="#a37e75" stroke="#a37e75" stroke-width="1.51"/><path d="M1213,1196L1020,1243L1598,1136Z" fill="#6697ab" stroke="#6697ab" stroke-width="1.51"/><path d="M1489,1134L1364,1154L1598,1136Z" fill="#3e85ba" stroke="#3e85ba" stroke-width="1.51"/><path d="M1364,1154L1213,1196L1598,1136Z" fill="#528fb2" stroke="#528fb2" stroke-width="1.51"/><path d="M1581,-190L1512,-61L1609,-2Z" fill="#a46081" stroke="#a46081" stroke-width="1.51"/><path d="M1519,771L1575,789L1629,602Z" fill="#97adab" stroke="#97adab" stroke-width="1.51"/><path d="M1498,1007L1628,1028L1641,836Z" fill="#6198ac" stroke="#6198ac" stroke-width="1.51"/><path d="M1629,602L1575,789L1641,836Z" fill="#94a5a9" stroke="#94a5a9" stroke-width="1.51"/><path d="M1606,467L1629,602L1647,318Z" fill="#b0a9af" stroke="#b0a9af" stroke-width="1.51"/><path d="M1629,602L1641,836L1647,318Z" fill="#aba9ae" stroke="#aba9ae" stroke-width="1.51"/><path d="M1581,-190L1609,-2L1673,100Z" fill="#aa5e7c" stroke="#aa5e7c" stroke-width="1.51"/><path d="M1609,-2L1415,89L1673,100Z" fill="#b4737d" stroke="#b4737d" stroke-width="1.51"/><path d="M1502,333L1647,318L1673,100Z" fill="#b49091" stroke="#b49091" stroke-width="1.51"/><path d="M1415,89L1502,333L1673,100Z" fill="#b38f8c" stroke="#b38f8c" stroke-width="1.51"/><path d="M1647,318L1641,836L1673,100Z" fill="#b3a1a6" stroke="#b3a1a6" stroke-width="1.51"/><path d="M1424,894L1498,1007L1575,789Z" fill="#66aab2" stroke="#66aab2" stroke-width="1.51"/><path d="M1575,789L1498,1007L1641,836Z" fill="#73a1ad" stroke="#73a1ad" stroke-width="1.51"/><path d="M1502,333L1606,467L1647,318Z" fill="#b0a6a3" stroke="#b0a6a3" stroke-width="1.51"/><path d="M1422,611L1519,771L1629,602Z" fill="#9fb9ac" stroke="#9fb9ac" stroke-width="1.51"/><path d="M1498,1007L1598,1136L1628,1028Z" fill="#4d88b4" stroke="#4d88b4" stroke-width="1.51"/><path d="M1606,467L1422,611L1629,602Z" fill="#a8b8b7" stroke="#a8b8b7" stroke-width="1.51"/><path d="M1519,771L1424,894L1575,789Z" fill="#7bb0b1" stroke="#7bb0b1" stroke-width="1.51"/><path d="M1310,-123L1453,-108L1581,-190Z" fill="#9d6d7f" stroke="#9d6d7f" stroke-width="1.51"/><path d="M1498,1007L1489,1134L1598,1136Z" fill="#3e87ba" stroke="#3e87ba" stroke-width="1.51"/><path d="M1502,333L1448,394L1606,467Z" fill="#adb3ab" stroke="#adb3ab" stroke-width="1.51"/><path d="M1448,394L1422,611L1606,467Z" fill="#a9c0bc" stroke="#a9c0bc" stroke-width="1.51"/><path d="M1512,-61L1415,89L1609,-2Z" fill="#ad7682" stroke="#ad7682" stroke-width="1.51"/><path d="M1453,-108L1512,-61L1581,-190Z" fill="#9d6582" stroke="#9d6582" stroke-width="1.51"/><path d="M1415,89L1343,138L1502,333Z" fill="#b8a38a" stroke="#b8a38a" stroke-width="1.51"/><path d="M1343,138L1337,323L1502,333Z" fill="#b8b492" stroke="#b8b492" stroke-width="1.51"/><path d="M1453,-108L1415,89L1512,-61Z" fill="#ad7a81" stroke="#ad7a81" stroke-width="1.51"/><path d="M1306,743L1424,894L1519,771Z" fill="#85beac" stroke="#85beac" stroke-width="1.51"/><path d="M1422,611L1306,743L1519,771Z" fill="#9ac7a9" stroke="#9ac7a9" stroke-width="1.51"/><path d="M1300,548L1422,611L1448,394Z" fill="#b1d3b8" stroke="#b1d3b8" stroke-width="1.51"/><path d="M1322,1054L1489,1134L1498,1007Z" fill="#4a9ab6" stroke="#4a9ab6" stroke-width="1.51"/><path d="M1326,406L1300,548L1448,394Z" fill="#b5d2ab" stroke="#b5d2ab" stroke-width="1.51"/><path d="M1298,-58L1415,89L1453,-108Z" fill="#b2857c" stroke="#b2857c" stroke-width="1.51"/><path d="M1322,1054L1364,1154L1489,1134Z" fill="#4897b7" stroke="#4897b7" stroke-width="1.51"/><path d="M1337,323L1448,394L1502,333Z" fill="#b2bca1" stroke="#b2bca1" stroke-width="1.51"/><path d="M1424,894L1322,1054L1498,1007Z" fill="#59adae" stroke="#59adae" stroke-width="1.51"/><path d="M1057,-189L1137,-133L1310,-123Z" fill="#b98b75" stroke="#b98b75" stroke-width="1.51"/><path d="M1306,743L1299,861L1424,894Z" fill="#83c7a7" stroke="#83c7a7" stroke-width="1.51"/><path d="M1310,-123L1298,-58L1453,-108Z" fill="#ad817b" stroke="#ad817b" stroke-width="1.51"/><path d="M1337,323L1326,406L1448,394Z" fill="#b6c8a0" stroke="#b6c8a0" stroke-width="1.51"/><path d="M1298,-58L1343,138L1415,89Z" fill="#bd9577" stroke="#bd9577" stroke-width="1.51"/><path d="M1300,548L1306,743L1422,611Z" fill="#acd6a6" stroke="#acd6a6" stroke-width="1.51"/><path d="M1299,861L1322,1054L1424,894Z" fill="#69bea8" stroke="#69bea8" stroke-width="1.51"/><path d="M1300,548L1192,590L1306,743Z" fill="#b5dfa3" stroke="#b5dfa3" stroke-width="1.51"/><path d="M1298,-58L1215,-25L1343,138Z" fill="#c09975" stroke="#c09975" stroke-width="1.51"/><path d="M1215,-25L1195,115L1343,138Z" fill="#c8a475" stroke="#c8a475" stroke-width="1.51"/><path d="M1216,317L1337,323L1343,138Z" fill="#bfc28a" stroke="#bfc28a" stroke-width="1.51"/><path d="M1195,115L1216,317L1343,138Z" fill="#c7b981" stroke="#c7b981" stroke-width="1.51"/><path d="M1322,1054L1213,1196L1364,1154Z" fill="#59a1b0" stroke="#59a1b0" stroke-width="1.51"/><path d="M1299,861L1123,988L1322,1054Z" fill="#71c5a6" stroke="#71c5a6" stroke-width="1.51"/><path d="M1226,401L1300,548L1326,406Z" fill="#bcdca8" stroke="#bcdca8" stroke-width="1.51"/><path d="M1226,401L1326,406L1337,323Z" fill="#bcd49b" stroke="#bcd49b" stroke-width="1.51"/><path d="M1216,317L1226,401L1337,323Z" fill="#c2d297" stroke="#c2d297" stroke-width="1.51"/><path d="M1160,778L1299,861L1306,743Z" fill="#97d4a4" stroke="#97d4a4" stroke-width="1.51"/><path d="M1123,872L1123,988L1299,861Z" fill="#8bcfa5" stroke="#8bcfa5" stroke-width="1.51"/><path d="M1123,988L1213,1196L1322,1054Z" fill="#6ab0af" stroke="#6ab0af" stroke-width="1.51"/><path d="M1226,401L1192,590L1300,548Z" fill="#c1e5b2" stroke="#c1e5b2" stroke-width="1.51"/><path d="M1192,590L1160,778L1306,743Z" fill="#b0dea1" stroke="#b0dea1" stroke-width="1.51"/><path d="M1215,-25L1298,-58L1310,-123Z" fill="#b88f78" stroke="#b88f78" stroke-width="1.51"/><path d="M1137,-133L1215,-25L1310,-123Z" fill="#bd8f78" stroke="#bd8f78" stroke-width="1.51"/><path d="M1160,778L1123,872L1299,861Z" fill="#98d4a5" stroke="#98d4a5" stroke-width="1.51"/><path d="M562,1171L387,1198L717,1186Z" fill="#b1a6a5" stroke="#b1a6a5" stroke-width="1.51"/><path d="M1123,988L1018,1016L1213,1196Z" fill="#7fbaae" stroke="#7fbaae" stroke-width="1.51"/><path d="M1018,1016L1020,1243L1213,1196Z" fill="#85abae" stroke="#85abae" stroke-width="1.51"/><path d="M1065,138L1195,115L1215,-25Z" fill="#d4a974" stroke="#d4a974" stroke-width="1.51"/><path d="M1195,115L1065,138L1216,317Z" fill="#d4bf80" stroke="#d4bf80" stroke-width="1.51"/><path d="M1065,138L973,290L1216,317Z" fill="#ddce87" stroke="#ddce87" stroke-width="1.51"/><path d="M1216,317L1035,470L1226,401Z" fill="#d0df9e" stroke="#d0df9e" stroke-width="1.51"/><path d="M1035,470L1192,590L1226,401Z" fill="#d0e9ad" stroke="#d0e9ad" stroke-width="1.51"/><path d="M972,-23L1065,138L1215,-25Z" fill="#dba773" stroke="#dba773" stroke-width="1.51"/><path d="M973,290L1035,470L1216,317Z" fill="#dce096" stroke="#dce096" stroke-width="1.51"/><path d="M1137,-133L972,-23L1215,-25Z" fill="#cf9a77" stroke="#cf9a77" stroke-width="1.51"/><path d="M980,772L1160,778L1192,590Z" fill="#bfe5a0" stroke="#bfe5a0" stroke-width="1.51"/><path d="M1009,541L980,772L1192,590Z" fill="#d3eda0" stroke="#d3eda0" stroke-width="1.51"/><path d="M1035,470L1009,541L1192,590Z" fill="#d8f0ad" stroke="#d8f0ad" stroke-width="1.51"/><path d="M980,772L1123,872L1160,778Z" fill="#b0dfa4" stroke="#b0dfa4" stroke-width="1.51"/><path d="M919,610L980,772L1009,541Z" fill="#e0f29d" stroke="#e0f29d" stroke-width="1.51"/><path d="M1029,903L1123,988L1123,872Z" fill="#97d4a4" stroke="#97d4a4" stroke-width="1.51"/><path d="M980,772L1029,903L1123,872Z" fill="#aedda2" stroke="#aedda2" stroke-width="1.51"/><path d="M1057,-189L972,-23L1137,-133Z" fill="#ce9675" stroke="#ce9675" stroke-width="1.51"/><path d="M1018,1016L902,1147L1020,1243Z" fill="#95b4ad" stroke="#95b4ad" stroke-width="1.51"/><path d="M1029,903L1018,1016L1123,988Z" fill="#94d1a4" stroke="#94d1a4" stroke-width="1.51"/><path d="M973,290L880,390L1035,470Z" fill="#ecea96" stroke="#ecea96" stroke-width="1.51"/><path d="M735,-175L851,-109L1057,-189Z" fill="#da9772" stroke="#da9772" stroke-width="1.51"/><path d="M851,-109L972,-23L1057,-189Z" fill="#dc9b72" stroke="#dc9b72" stroke-width="1.51"/><path d="M840,118L973,290L1065,138Z" fill="#efca7a" stroke="#efca7a" stroke-width="1.51"/><path d="M972,-23L840,118L1065,138Z" fill="#eeb56f" stroke="#eeb56f" stroke-width="1.51"/><path d="M919,610L884,734L980,772Z" fill="#dcf09b" stroke="#dcf09b" stroke-width="1.51"/><path d="M871,1068L902,1147L1018,1016Z" fill="#9fc3ab" stroke="#9fc3ab" stroke-width="1.51"/><path d="M902,1147L717,1186L1020,1243Z" fill="#a6adaa" stroke="#a6adaa" stroke-width="1.51"/><path d="M852,887L1018,1016L1029,903Z" fill="#a9dba0" stroke="#a9dba0" stroke-width="1.51"/><path d="M980,772L852,887L1029,903Z" fill="#bbe2a0" stroke="#bbe2a0" stroke-width="1.51"/><path d="M880,390L1009,541L1035,470Z" fill="#eaf2a5" stroke="#eaf2a5" stroke-width="1.51"/><path d="M852,887L871,1068L1018,1016Z" fill="#a9d6a2" stroke="#a9d6a2" stroke-width="1.51"/><path d="M840,118L868,303L973,290Z" fill="#f6d682" stroke="#f6d682" stroke-width="1.51"/><path d="M880,390L919,610L1009,541Z" fill="#f0f9ac" stroke="#f0f9ac" stroke-width="1.51"/><path d="M851,-109L840,-64L972,-23Z" fill="#e9a474" stroke="#e9a474" stroke-width="1.51"/><path d="M840,-64L840,118L972,-23Z" fill="#f0ae71" stroke="#f0ae71" stroke-width="1.51"/><path d="M868,303L880,390L973,290Z" fill="#f3e58d" stroke="#f3e58d" stroke-width="1.51"/><path d="M884,734L852,887L980,772Z" fill="#cdea9f" stroke="#cdea9f" stroke-width="1.51"/><path d="M852,887L770,1050L871,1068Z" fill="#add5ab" stroke="#add5ab" stroke-width="1.51"/><path d="M757,395L730,603L880,390Z" fill="#fbf8af" stroke="#fbf8af" stroke-width="1.51"/><path d="M730,603L884,734L919,610Z" fill="#ecf8a1" stroke="#ecf8a1" stroke-width="1.51"/><path d="M880,390L730,603L919,610Z" fill="#f5fcb0" stroke="#f5fcb0" stroke-width="1.51"/><path d="M840,118L722,286L868,303Z" fill="#fbd88a" stroke="#fbd88a" stroke-width="1.51"/><path d="M687,775L852,887L884,734Z" fill="#d3eda9" stroke="#d3eda9" stroke-width="1.51"/><path d="M871,1068L770,1050L902,1147Z" fill="#a4c3b2" stroke="#a4c3b2" stroke-width="1.51"/><path d="M770,1050L717,1186L902,1147Z" fill="#a5bcb7" stroke="#a5bcb7" stroke-width="1.51"/><path d="M840,-64L730,92L840,118Z" fill="#f9b577" stroke="#f9b577" stroke-width="1.51"/><path d="M868,303L757,395L880,390Z" fill="#f8ed99" stroke="#f8ed99" stroke-width="1.51"/><path d="M730,603L687,775L884,734Z" fill="#e8f6a9" stroke="#e8f6a9" stroke-width="1.51"/><path d="M727,-67L730,92L840,-64Z" fill="#f6ae7e" stroke="#f6ae7e" stroke-width="1.51"/><path d="M674,914L770,1050L852,887Z" fill="#b7e1ae" stroke="#b7e1ae" stroke-width="1.51"/><path d="M730,92L722,286L840,118Z" fill="#fecc86" stroke="#fecc86" stroke-width="1.51"/><path d="M722,286L757,395L868,303Z" fill="#fce99a" stroke="#fce99a" stroke-width="1.51"/><path d="M687,775L674,914L852,887Z" fill="#cbeaaf" stroke="#cbeaaf" stroke-width="1.51"/><path d="M727,-67L840,-64L851,-109Z" fill="#eda47c" stroke="#eda47c" stroke-width="1.51"/><path d="M735,-175L727,-67L851,-109Z" fill="#e89f7f" stroke="#e89f7f" stroke-width="1.51"/><path d="M545,133L722,286L730,92Z" fill="#ffca83" stroke="#ffca83" stroke-width="1.51"/><path d="M727,-67L617,-21L730,92Z" fill="#faae7e" stroke="#faae7e" stroke-width="1.51"/><path d="M567,424L730,603L757,395Z" fill="#fff8b4" stroke="#fff8b4" stroke-width="1.51"/><path d="M625,1081L717,1186L770,1050Z" fill="#a9c1bd" stroke="#a9c1bd" stroke-width="1.51"/><path d="M674,914L625,1081L770,1050Z" fill="#b3d3b3" stroke="#b3d3b3" stroke-width="1.51"/><path d="M722,286L570,339L757,395Z" fill="#ffe99d" stroke="#ffe99d" stroke-width="1.51"/><path d="M570,339L567,424L757,395Z" fill="#ffeb9d" stroke="#ffeb9d" stroke-width="1.51"/><path d="M526,622L605,786L687,775Z" fill="#e7ec9f" stroke="#e7ec9f" stroke-width="1.51"/><path d="M545,133L570,339L722,286Z" fill="#ffd587" stroke="#ffd587" stroke-width="1.51"/><path d="M526,622L687,775L730,603Z" fill="#f2f4a2" stroke="#f2f4a2" stroke-width="1.51"/><path d="M567,424L526,622L730,603Z" fill="#fcf5ab" stroke="#fcf5ab" stroke-width="1.51"/><path d="M617,-21L727,-67L735,-175Z" fill="#f0a281" stroke="#f0a281" stroke-width="1.51"/><path d="M525,-195L617,-21L735,-175Z" fill="#e79777" stroke="#e79777" stroke-width="1.51"/><path d="M617,-21L545,133L730,92Z" fill="#feb274" stroke="#feb274" stroke-width="1.51"/><path d="M605,786L674,914L687,775Z" fill="#d4e8a9" stroke="#d4e8a9" stroke-width="1.51"/><path d="M625,1081L562,1171L717,1186Z" fill="#adb4b2" stroke="#adb4b2" stroke-width="1.51"/><path d="M121,1131L-170,1204L387,1198Z" fill="#b26e7c" stroke="#b26e7c" stroke-width="1.51"/><path d="M587,893L625,1081L674,914Z" fill="#b9d9a6" stroke="#b9d9a6" stroke-width="1.51"/><path d="M605,786L587,893L674,914Z" fill="#cce2a5" stroke="#cce2a5" stroke-width="1.51"/><path d="M587,893L475,1007L625,1081Z" fill="#b8cea1" stroke="#b8cea1" stroke-width="1.51"/><path d="M526,622L455,687L605,786Z" fill="#ece893" stroke="#ece893" stroke-width="1.51"/><path d="M441,-13L545,133L617,-21Z" fill="#faa568" stroke="#faa568" stroke-width="1.51"/><path d="M525,-195L441,-13L617,-21Z" fill="#ee966c" stroke="#ee966c" stroke-width="1.51"/><path d="M475,1007L562,1171L625,1081Z" fill="#aebaa8" stroke="#aebaa8" stroke-width="1.51"/><path d="M450,436L526,622L567,424Z" fill="#ffeca1" stroke="#ffeca1" stroke-width="1.51"/><path d="M545,133L378,264L570,339Z" fill="#fec977" stroke="#fec977" stroke-width="1.51"/><path d="M367,839L587,893L605,786Z" fill="#d2dc97" stroke="#d2dc97" stroke-width="1.51"/><path d="M455,687L367,839L605,786Z" fill="#dfdc91" stroke="#dfdc91" stroke-width="1.51"/><path d="M291,1153L121,1131L387,1198Z" fill="#b48888" stroke="#b48888" stroke-width="1.51"/><path d="M367,839L475,1007L587,893Z" fill="#c5d093" stroke="#c5d093" stroke-width="1.51"/><path d="M450,436L396,574L526,622Z" fill="#fde699" stroke="#fde699" stroke-width="1.51"/><path d="M396,123L378,264L545,133Z" fill="#fdb468" stroke="#fdb468" stroke-width="1.51"/><path d="M475,1007L387,1198L562,1171Z" fill="#afa9a1" stroke="#afa9a1" stroke-width="1.51"/><path d="M450,436L567,424L570,339Z" fill="#ffe492" stroke="#ffe492" stroke-width="1.51"/><path d="M378,264L450,436L570,339Z" fill="#fed682" stroke="#fed682" stroke-width="1.51"/><path d="M387,-186L441,-13L525,-195Z" fill="#e48563" stroke="#e48563" stroke-width="1.51"/><path d="M441,-13L396,123L545,133Z" fill="#fca461" stroke="#fca461" stroke-width="1.51"/><path d="M-44,1146L-170,1204L121,1131Z" fill="#a66480" stroke="#a66480" stroke-width="1.51"/><path d="M396,574L455,687L526,622Z" fill="#f6e38f" stroke="#f6e38f" stroke-width="1.51"/><path d="M-177,-153L-40,-141L123,-171Z" fill="#cb384c" stroke="#cb384c" stroke-width="1.51"/><path d="M367,839L315,864L475,1007Z" fill="#c9c689" stroke="#c9c689" stroke-width="1.51"/><path d="M315,864L261,1021L475,1007Z" fill="#bfbc86" stroke="#bfbc86" stroke-width="1.51"/><path d="M291,1153L387,1198L475,1007Z" fill="#b1a098" stroke="#b1a098" stroke-width="1.51"/><path d="M261,1021L291,1153L475,1007Z" fill="#b6a78f" stroke="#b6a78f" stroke-width="1.51"/><path d="M387,-186L273,-129L441,-13Z" fill="#e77c5b" stroke="#e77c5b" stroke-width="1.51"/><path d="M236,405L396,574L450,436Z" fill="#ffd78c" stroke="#ffd78c" stroke-width="1.51"/><path d="M378,264L236,405L450,436Z" fill="#ffcb79" stroke="#ffcb79" stroke-width="1.51"/><path d="M234,723L367,839L455,687Z" fill="#e5ce82" stroke="#e5ce82" stroke-width="1.51"/><path d="M317,599L234,723L455,687Z" fill="#f3d27d" stroke="#f3d27d" stroke-width="1.51"/><path d="M396,574L317,599L455,687Z" fill="#f8db88" stroke="#f8db88" stroke-width="1.51"/><path d="M123,-171L273,-129L387,-186Z" fill="#db6450" stroke="#db6450" stroke-width="1.51"/><path d="M273,-129L242,-35L441,-13Z" fill="#ed7c56" stroke="#ed7c56" stroke-width="1.51"/><path d="M242,-35L396,123L441,-13Z" fill="#f68e57" stroke="#f68e57" stroke-width="1.51"/><path d="M214,318L236,405L378,264Z" fill="#fdb96d" stroke="#fdb96d" stroke-width="1.51"/><path d="M247,122L378,264L396,123Z" fill="#fca75d" stroke="#fca75d" stroke-width="1.51"/><path d="M242,-35L247,122L396,123Z" fill="#f98b50" stroke="#f98b50" stroke-width="1.51"/><path d="M236,405L317,599L396,574Z" fill="#ffd48c" stroke="#ffd48c" stroke-width="1.51"/><path d="M234,723L315,864L367,839Z" fill="#dbc480" stroke="#dbc480" stroke-width="1.51"/><path d="M247,122L214,318L378,264Z" fill="#fdaa60" stroke="#fdaa60" stroke-width="1.51"/><path d="M117,845L261,1021L315,864Z" fill="#cab07b" stroke="#cab07b" stroke-width="1.51"/><path d="M234,723L117,845L315,864Z" fill="#dbb779" stroke="#dbb779" stroke-width="1.51"/><path d="M236,405L89,594L317,599Z" fill="#ffc483" stroke="#ffc483" stroke-width="1.51"/><path d="M89,594L234,723L317,599Z" fill="#f6c175" stroke="#f6c175" stroke-width="1.51"/><path d="M125,764L117,845L234,723Z" fill="#e0b072" stroke="#e0b072" stroke-width="1.51"/><path d="M124,397L89,594L236,405Z" fill="#ffb578" stroke="#ffb578" stroke-width="1.51"/><path d="M115,281L214,318L247,122Z" fill="#fb9d5a" stroke="#fb9d5a" stroke-width="1.51"/><path d="M117,845L128,1039L261,1021Z" fill="#c1a177" stroke="#c1a177" stroke-width="1.51"/><path d="M128,1039L121,1131L261,1021Z" fill="#b78d80" stroke="#b78d80" stroke-width="1.51"/><path d="M261,1021L121,1131L291,1153Z" fill="#b48e88" stroke="#b48e88" stroke-width="1.51"/><path d="M113,129L115,281L247,122Z" fill="#f98b50" stroke="#f98b50" stroke-width="1.51"/><path d="M242,-35L100,-1L247,122Z" fill="#f37349" stroke="#f37349" stroke-width="1.51"/><path d="M123,-171L242,-35L273,-129Z" fill="#e2624f" stroke="#e2624f" stroke-width="1.51"/><path d="M100,-1L113,129L247,122Z" fill="#f67646" stroke="#f67646" stroke-width="1.51"/><path d="M89,594L125,764L234,723Z" fill="#efb46f" stroke="#efb46f" stroke-width="1.51"/><path d="M123,-171L100,-1L242,-35Z" fill="#e75d4b" stroke="#e75d4b" stroke-width="1.51"/><path d="M214,318L124,397L236,405Z" fill="#fdb36c" stroke="#fdb36c" stroke-width="1.51"/><path d="M115,281L124,397L214,318Z" fill="#fca663" stroke="#fca663" stroke-width="1.51"/><path d="M100,-1L10,-15L113,129Z" fill="#ed6346" stroke="#ed6346" stroke-width="1.51"/><path d="M10,-15L0,158L113,129Z" fill="#ee694a" stroke="#ee694a" stroke-width="1.51"/><path d="M113,129L0,158L115,281Z" fill="#f48451" stroke="#f48451" stroke-width="1.51"/><path d="M0,158L-11,300L115,281Z" fill="#f28a5a" stroke="#f28a5a" stroke-width="1.51"/><path d="M-69,863L-80,998L117,845Z" fill="#c19477" stroke="#c19477" stroke-width="1.51"/><path d="M10,-15L100,-1L123,-171Z" fill="#e3544a" stroke="#e3544a" stroke-width="1.51"/><path d="M-40,-141L10,-15L123,-171Z" fill="#d9474c" stroke="#d9474c" stroke-width="1.51"/><path d="M-62,540L89,594L124,397Z" fill="#fab081" stroke="#fab081" stroke-width="1.51"/><path d="M-52,409L-62,540L124,397Z" fill="#f4a479" stroke="#f4a479" stroke-width="1.51"/><path d="M115,281L-11,300L124,397Z" fill="#f79d63" stroke="#f79d63" stroke-width="1.51"/><path d="M-71,757L117,845L125,764Z" fill="#d9a474" stroke="#d9a474" stroke-width="1.51"/><path d="M89,594L-71,757L125,764Z" fill="#e6a871" stroke="#e6a871" stroke-width="1.51"/><path d="M117,845L-80,998L128,1039Z" fill="#bb9676" stroke="#bb9676" stroke-width="1.51"/><path d="M-44,1146L121,1131L128,1039Z" fill="#ad7982" stroke="#ad7982" stroke-width="1.51"/><path d="M-80,998L-44,1146L128,1039Z" fill="#ad7c7f" stroke="#ad7c7f" stroke-width="1.51"/><path d="M-11,300L-52,409L124,397Z" fill="#f49d6b" stroke="#f49d6b" stroke-width="1.51"/><path d="M-71,757L-69,863L117,845Z" fill="#ce9b76" stroke="#ce9b76" stroke-width="1.51"/><path d="M-62,540L-71,757L89,594Z" fill="#eba675" stroke="#eba675" stroke-width="1.51"/><path d="M-148,685L-71,757L-62,540Z" fill="#e09d71" stroke="#e09d71" stroke-width="1.51"/><path d="M-141,167L-148,273L-11,300Z" fill="#e67c5c" stroke="#e67c5c" stroke-width="1.51"/><path d="M-160,-5L-141,167L0,158Z" fill="#e05d4d" stroke="#e05d4d" stroke-width="1.51"/><path d="M-141,167L-11,300L0,158Z" fill="#eb7a58" stroke="#eb7a58" stroke-width="1.51"/><path d="M-160,-5L0,158L10,-15Z" fill="#e4554b" stroke="#e4554b" stroke-width="1.51"/><path d="M-40,-141L-160,-5L10,-15Z" fill="#d8444e" stroke="#d8444e" stroke-width="1.51"/><path d="M-136,401L-52,409L-11,300Z" fill="#ec956e" stroke="#ec956e" stroke-width="1.51"/><path d="M-148,273L-136,401L-11,300Z" fill="#e78a66" stroke="#e78a66" stroke-width="1.51"/><path d="M-136,991L-80,998L-69,863Z" fill="#af8877" stroke="#af8877" stroke-width="1.51"/><path d="M-179,586L-148,685L-62,540Z" fill="#e09a77" stroke="#e09a77" stroke-width="1.51"/><path d="M-136,401L-62,540L-52,409Z" fill="#ec9b79" stroke="#ec9b79" stroke-width="1.51"/><path d="M-80,998L-136,991L-44,1146Z" fill="#a6767e" stroke="#a6767e" stroke-width="1.51"/><path d="M-136,991L-170,1204L-44,1146Z" fill="#9b6582" stroke="#9b6582" stroke-width="1.51"/><path d="M-177,-153L-160,-5L-40,-141Z" fill="#c9344d" stroke="#c9344d" stroke-width="1.51"/><path d="M-163,863L-136,991L-69,863Z" fill="#b38876" stroke="#b38876" stroke-width="1.51"/><path d="M-71,757L-163,863L-69,863Z" fill="#c39176" stroke="#c39176" stroke-width="1.51"/><path d="M-136,401L-179,586L-62,540Z" fill="#e79d82" stroke="#e79d82" stroke-width="1.51"/><path d="M-148,685L-163,863L-71,757Z" fill="#ca9274" stroke="#ca9274" stroke-width="1.51"/><path d="M-148,273L-179,586L-136,401Z" fill="#e19072" stroke="#e19072" stroke-width="1.51"/><path d="M-163,863L-170,1204L-136,991Z" fill="#9f757a" stroke="#9f757a" stroke-width="1.51"/><path d="M-160,-5L-148,273L-141,167Z" fill="#db614f" stroke="#db614f" stroke-width="1.51"/><path d="M-179,586L-163,863L-148,685Z" fill="#ce9270" stroke="#ce9270" stroke-width="1.51"/><path d="M-160,-5L-179,586L-148,273Z" fill="#dd7c5f" stroke="#dd7c5f" stroke-width="1.51"/><path d="M-177,-153L-179,586L-160,-5Z" fill="#d85f4f" stroke="#d85f4f" stroke-width="1.51"/><path d="M-179,586L-170,1204L-163,863Z" fill="#b08574" stroke="#b08574" stroke-width="1.51"/></svg>